<svg width="66" height="66" viewBox="0 0 66 66" fill="none" xmlns="http://www.w3.org/2000/svg">
<g clip-path="url(#clip0_261616_22)">
<path d="M34.3099 52.4443C44.2399 52.4443 52.2898 44.3945 52.2898 34.4645C52.2898 24.5345 44.2399 16.4846 34.3099 16.4846C24.3799 16.4846 16.3301 24.5345 16.3301 34.4645C16.3301 44.3945 24.3799 52.4443 34.3099 52.4443Z" fill="#060606"/>
<path d="M31.6903 49.5154C41.6203 49.5154 49.6701 41.4655 49.6701 31.5355C49.6701 21.6055 41.6203 13.5557 31.6903 13.5557C21.7603 13.5557 13.7104 21.6055 13.7104 31.5355C13.7104 41.4655 21.7603 49.5154 31.6903 49.5154Z" fill="black"/>
<path d="M31.6904 50.5016C21.2322 50.5016 12.7231 41.9938 12.7231 31.5356C12.7231 21.0775 21.2322 12.5684 31.6904 12.5684C42.1486 12.5684 50.6603 21.0762 50.6603 31.5356C50.6603 41.9951 42.1524 50.5016 31.6904 50.5016ZM31.6904 14.5368C22.3202 14.5419 14.6954 22.1641 14.6954 31.5356C14.6954 40.9071 22.3189 48.5293 31.6891 48.5293C41.0593 48.5293 48.6828 40.9058 48.6828 31.5356C48.6828 22.1654 41.0606 14.5419 31.6904 14.5419V14.5368Z" fill="white"/>
<path d="M37.2022 36.5746C36.7034 37.3253 36.0077 37.9242 35.1913 38.3058C34.3078 38.7441 33.2474 38.9856 32.0099 39.0303V40.835H30.5816V38.9852C28.9221 38.8339 27.5678 38.3282 26.5185 37.4679C25.4692 36.6077 24.9149 35.4385 24.8556 33.9604H29.5864C29.6457 34.7287 29.9774 35.234 30.5816 35.4763V32.5785C29.5685 32.3151 28.5713 31.9941 27.5948 31.6169C26.843 31.3022 26.1792 30.8088 25.6612 30.1796C25.0949 29.5153 24.8122 28.6099 24.813 27.4635C24.7933 26.5773 25.059 25.7083 25.571 24.9846C26.1013 24.264 26.8172 23.7008 27.6425 23.3553C28.5741 22.9578 29.5697 22.7316 30.5816 22.6875V20.8545H32.0073V22.6875C33.6831 22.8087 35.0151 23.2917 36.0034 24.1364C36.9917 24.9812 37.5387 26.1414 37.6444 27.6169H32.871C32.8099 26.9234 32.5229 26.4632 32.0099 26.2363V29.1109L32.5758 29.2914C33.5001 29.5373 34.4049 29.8514 35.2828 30.2311C36.0041 30.5618 36.6357 31.0604 37.1249 31.6852C37.6405 32.3271 37.8983 33.1685 37.8983 34.2092C37.9027 35.0488 37.6607 35.8712 37.2022 36.5746V36.5746ZM30.5816 28.5953V26.1061C29.8881 26.2256 29.5409 26.6102 29.54 27.2598C29.54 27.8038 29.8872 28.249 30.5816 28.5953ZM32.871 35.1476C32.9763 35.038 33.0587 34.9085 33.1131 34.7666C33.1676 34.6246 33.1931 34.4733 33.1881 34.3213C33.1881 33.7945 32.7953 33.3648 32.0099 33.0323V35.5898C32.3354 35.5339 32.6359 35.3796 32.871 35.1476V35.1476Z" fill="white"/>
</g>
<defs>
<clipPath id="clip0_261616_22">
<rect width="66" height="66" fill="white"/>
</clipPath>
</defs>
</svg>
