<svg width="66" height="66" viewBox="0 0 66 66" fill="none" xmlns="http://www.w3.org/2000/svg">
<path d="M24.2344 19.0781C24.2344 18.2222 23.5434 17.5312 22.6875 17.5312H22.1873L22.3472 2.07797C22.3575 1.22203 21.6717 0.525937 20.8158 0.515625C20.8106 0.515625 20.8055 0.515625 20.8003 0.515625C19.9547 0.515625 19.2638 1.19625 19.2534 2.04703L19.0936 17.5312H18.5625C17.7066 17.5312 17.0156 18.2222 17.0156 19.0781C17.0156 19.9341 17.7066 20.625 18.5625 20.625H20.6095C20.6147 20.625 20.6198 20.625 20.625 20.625H22.6875C23.5434 20.625 24.2344 19.9341 24.2344 19.0781ZM40.7911 42.173C40.7963 42.173 40.8014 42.1678 40.8066 42.1678C40.8272 42.1575 40.8427 42.1472 40.8633 42.142C40.9303 42.1111 40.9922 42.0802 41.0489 42.0389C41.0747 42.0234 41.0953 42.008 41.1159 41.9925C41.1727 41.9513 41.2242 41.91 41.2758 41.8584C41.2913 41.843 41.3067 41.8327 41.3222 41.8172C41.3841 41.7553 41.4408 41.6831 41.4923 41.6109C41.5027 41.5955 41.513 41.5748 41.5233 41.5594C41.5594 41.4975 41.5955 41.4408 41.6213 41.3737C41.6316 41.348 41.6419 41.3222 41.6522 41.2964C41.678 41.2294 41.6986 41.1572 41.7192 41.085C41.7244 41.0695 41.7295 41.0489 41.7347 41.0334C41.7502 40.9561 41.7605 40.8736 41.7656 40.7963L42.2812 27.8231C42.307 27.2147 41.9719 26.6527 41.4305 26.3794C40.8891 26.1061 40.2394 26.1783 39.765 26.5547C37.8366 28.1119 35.4337 28.9678 33 28.9678C29.5298 28.9678 26.2298 27.2456 24.1673 24.3633C23.6723 23.6672 22.703 23.5073 22.0069 24.0075C21.3108 24.5025 21.1509 25.4719 21.6511 26.168C22.2647 27.0291 22.9711 27.8025 23.7445 28.4934L24.2344 40.7963C24.2602 41.4047 24.6366 41.9461 25.2038 42.173L26.8589 42.833L27.7716 62.3906H25.2656C24.4097 62.3906 23.7188 63.0816 23.7188 63.9375C23.7188 64.7934 24.4097 65.4844 25.2656 65.4844H40.7344C41.5903 65.4844 42.2812 64.7934 42.2812 63.9375C42.2812 63.0816 41.5903 62.3906 40.7344 62.3906H38.2284L39.1359 42.833L40.7911 42.173ZM51.0469 11.947H42.7969C41.9409 11.947 41.25 12.638 41.25 13.4939V17.9747C41.25 21.1922 43.4466 23.9302 46.5867 24.6262C46.695 24.652 46.8084 24.6623 46.9219 24.6623C47.0353 24.6623 47.1488 24.652 47.257 24.6262C50.3972 23.9302 52.5938 21.1922 52.5938 17.9747V13.4939C52.5938 12.638 51.9028 11.947 51.0469 11.947Z" fill="black"/>
<path d="M33 25.2656C35.2782 25.2656 37.125 23.4188 37.125 21.1406C37.125 18.8625 35.2782 17.0156 33 17.0156C30.7218 17.0156 28.875 18.8625 28.875 21.1406C28.875 23.4188 30.7218 25.2656 33 25.2656Z" fill="black"/>
</svg>
