<svg width="66" height="66" viewBox="0 0 66 66" fill="none" xmlns="http://www.w3.org/2000/svg">
<g clip-path="url(#clip0_261616_2)">
<path fill-rule="evenodd" clip-rule="evenodd" d="M53.1221 39.0375C53.0038 39.1349 52.8483 39.3809 52.7857 39.36C52.7857 39.3554 52.7857 39.3577 52.7833 39.3554C52.7833 39.3507 52.7833 39.353 52.7857 39.3507C52.7857 39.3345 52.8181 39.2834 52.8297 39.2811C52.8297 39.2765 52.8297 39.2788 52.8321 39.2765C52.8321 39.2718 52.8321 39.2742 52.8344 39.2718C52.8344 39.0189 52.3726 39.0398 52.3378 39.1489C52.3355 39.1489 52.3309 39.1512 52.3309 39.1465H52.3262C52.2729 38.9841 51.6557 39.1929 51.5164 39.1929L51.4816 39.1489C50.9433 39.1489 50.8041 40.0677 50.463 40.0677C50.4514 40.0561 50.521 39.9819 50.521 39.9819C50.521 39.0073 48.9014 41.0585 48.9014 41.0585C48.9014 39.2742 47.1704 41.5829 47.1704 41.5829C48.6763 40.1072 45.045 41.9913 45.045 41.9913C45.045 41.0933 45.1169 40.7035 44.6946 41.2673C44.6946 41.2673 44.8779 42.0911 44.9661 42.0562C44.973 42.0632 45.0032 42.0655 45.0055 42.0562H45.0079C45.0079 42.344 44.2514 43.4276 43.8593 43.3324C43.8593 43.3324 44.8083 42.2813 44.8617 42.2628V42.2581C44.8617 42.0748 44.6111 41.8567 44.4579 42.0586C44.502 42.0818 43.2908 43.0076 43.2908 43.0076C42.901 43.0076 42.2861 43.474 42.3441 43.4647C42.0517 43.3672 42.6504 43.1491 42.2002 43.4137C41.8475 43.1538 42.4392 43.286 42.4392 43.286C42.4926 43.1166 42.5483 43.1909 42.6434 43.2211C42.6434 43.4415 42.713 43.0331 42.72 42.9635C42.4044 42.8591 41.59 43.0122 41.996 43.0122C42.1051 43.4369 41.7779 42.9009 41.7918 42.9055C41.3139 42.3045 41.648 42.8034 41.2442 42.9055C41.2442 43.5598 41.0957 42.5134 40.1653 42.75C40.1653 42.75 40.272 43.0865 40.0887 42.7036C40.0887 42.7036 40.7547 43.2373 40.7547 43.4833C40.7523 43.4833 40.7547 43.4833 40.7547 43.4856H40.7523C40.7036 43.4485 40.88 43.5018 40.9032 43.5018C40.9983 43.2187 41.7083 43.648 41.7083 43.648C42.1886 43.2791 42.184 44.2327 42.3046 43.8731C42.4462 43.9102 42.8987 43.8708 42.8615 43.9891C42.7687 43.9659 42.4856 44.5274 42.4856 44.5274C42.4856 44.5274 44.0124 44.8499 44.0124 45.2676C44.0078 45.2699 43.9869 45.3024 43.9799 45.3117C43.9823 45.3163 43.9962 45.3627 43.9985 45.3674C44.0078 45.3674 44.0101 45.372 44.0194 45.372C44.0217 45.3767 44.0333 45.3743 44.0356 45.379C44.1029 45.379 44.1284 45.727 44.205 45.7526C44.205 45.8593 44.1238 45.8315 44.0681 45.8871C43.9359 45.8871 44.0194 46.147 44.0194 46.147C43.9892 46.1401 43.9823 45.9707 43.9405 45.9823C43.8384 46.3883 44.4579 46.3582 44.9498 46.7341C45.096 46.625 43.2467 43.5134 43.2212 43.6202C43.1098 43.6202 42.8244 43.2396 43.2119 43.2396C43.5298 44.539 44.6946 45.8361 46.3444 45.8361C46.3444 45.8547 48.1194 46.0148 48.5533 46.1609C48.0104 47.2445 47.4303 47.5369 46.4186 47.6785C46.4186 47.6785 45.5531 47.3188 45.2329 47.3188C45.0751 47.943 39.2743 51.3191 39.2743 49.4164C39.4228 49.3793 39.4599 49.2679 39.6455 49.2679C39.7894 48.6901 39.9449 48.0335 39.9449 47.4789C39.374 47.3374 38.8659 47.0752 38.8659 47.0752C38.0979 46.8872 36.8356 46.2306 36.8356 46.2306C36.8356 46.0728 37.1001 45.4602 37.5735 45.4602C37.5758 45.4648 37.6036 45.5043 37.6106 45.5043C37.6222 45.5391 37.657 45.3581 37.657 45.3581C37.6059 45.2305 38.6524 44.7571 38.7127 44.7363C38.5178 44.4787 41.1073 44.1538 39.9379 43.8684C39.9379 43.8499 39.9565 43.6434 39.9657 43.6109C40.1653 43.6109 39.8172 43.0215 39.8172 43.0215C39.613 43.0911 39.7569 43.2605 39.7569 43.3417C39.1629 43.539 38.9425 42.8405 38.7615 42.8405C38.722 42.9542 38.671 43.1816 38.49 43.1352C38.3624 42.6317 34.0233 43.0285 34.0233 41.3973C34.3876 41.3973 36.9446 41.801 36.1534 41.5922C36.1534 41.5922 35.3343 39.7081 35.2693 39.5108H35.2624C35.2229 39.6338 34.912 39.8612 35.2879 39.8612C35.5083 40.5364 34.1625 41.5736 34.0349 41.1815C34.0187 41.1815 33.9908 41.142 33.9746 41.1327C33.9746 41.1327 33.7704 40.5318 34.1324 40.4111C34.1324 40.3021 33.9096 40.7963 33.8284 40.5596C33.8284 40.5596 33.7333 41.2441 33.55 41.1095C33.4432 41.1745 31.6357 41.6293 31.7471 41.6293C31.7819 41.736 31.3132 43.3023 31.0115 43.3023C30.9025 42.8568 30.6774 42.583 30.5312 42.1351C30.5173 42.1351 30.5173 42.1444 30.508 42.1467C30.4175 42.6039 30.3688 42.0609 30.0439 42.0609C30.03 42.1003 29.9604 42.2233 29.9349 42.2558C29.9836 42.3857 31.573 44.3998 30.0114 44.3998C29.907 44.0819 29.5566 44.2861 29.5566 44.2861C29.4963 44.365 29.5938 44.5321 29.494 44.6063L28.6332 44.4485C28.6215 44.4973 28.5705 44.5645 28.5937 44.6249C28.4313 44.8407 28.3269 45.7178 28.7561 45.3906C28.7933 45.502 29.1877 46.5716 28.7144 46.9243C28.3129 45.973 25.3684 45.966 24.5354 45.857C24.5981 45.734 24.6746 45.6365 24.7628 45.5275L25.1433 45.6296L25.1294 45.7502L25.3847 45.7131L25.3313 45.4045L25.4752 45.3767L25.3707 45.0263L25.2872 45.0217L25.4055 44.7525L25.561 44.7293L25.5819 44.604C25.7049 44.6179 25.8093 44.5924 25.9323 44.5715L25.9276 44.4068L26.1527 44.3557L26.0784 43.836L26.1341 43.829L26.1457 43.7756L26.7003 43.655L26.7746 43.4554L26.6191 43.2907L26.9532 42.8544L26.6609 42.6039C26.6771 42.2651 26.6585 42.1328 26.5866 41.7732H26.8442V41.685H26.7328L26.7421 41.6502H26.8558V41.5922C26.9811 41.5458 27.0971 41.5458 27.2317 41.5388L27.227 41.3717L27.4451 41.3787C27.4498 41.4808 27.4498 41.5574 27.4939 41.6502C26.9973 42.1699 27.8558 41.7592 27.8953 41.8845C28.3779 41.5226 27.9138 41.8869 28.3779 41.9495L28.4104 42.1723L28.4777 42.1653L28.487 42.2187L28.7074 42.1746L28.661 41.8729L28.719 41.8521L28.7399 41.9077C28.7979 41.8915 28.8304 41.8822 28.8721 41.8405L28.8536 41.75L28.8884 41.7244L28.9348 41.7917H28.9742C29.0021 41.9101 29.023 41.9472 29.1135 42.0307L29.081 42.0841L29.2944 42.2024L29.3061 42.1235L29.4383 42.0284L29.5961 42.0911L29.61 42.0632L29.7052 42.0934L29.8119 42.0261L29.8769 42.0795L30.0091 42.0006C29.8629 41.7152 29.3061 41.7059 29.3061 41.3996L29.4592 41.3741C29.5845 41.0515 29.5729 40.0074 29.2434 40.0074C29.2318 40.0515 28.9487 40.1048 28.893 40.1048C28.8443 39.9355 28.6703 39.7243 28.545 39.7243C28.538 39.7452 28.4313 39.7707 28.4058 39.7707C28.3988 39.7521 28.3454 39.7359 28.3454 39.6941C28.4846 39.6477 28.4568 39.3646 28.5357 39.3646C28.538 39.36 28.5473 39.3646 28.5473 39.3554C28.5287 39.3484 28.5473 39.1465 28.5171 39.1164L28.3292 39.1326L28.3338 39.2045L28.2735 39.2069L28.2317 39.0537L28.1876 39.063V38.9795L28.415 38.9493L28.3408 38.4945L28.4754 38.4458L28.4034 37.9817L28.1621 38.0281L28.1482 38.2439L27.9881 38.3042L27.9858 38.2509L27.9046 38.2694L27.8582 38.0745L27.8906 38.056L27.886 37.9469L27.7236 37.9724L27.6772 37.6429C27.5728 37.6824 27.5379 37.6986 27.4799 37.7938L27.4567 37.5826L27.3106 37.7381L27.3059 37.5989L27.2711 37.5919C27.3245 37.5014 27.3175 37.4712 27.2989 37.3691L27.2061 37.397L27.1319 37.1882C27.1945 37.151 27.227 37.1348 27.2989 37.1301C27.3059 37.0466 27.3129 37.035 27.3778 36.9816C27.3755 36.9608 27.3848 36.9051 27.4034 36.9004C27.4034 36.8703 27.4103 36.8842 27.4034 36.854C27.2989 36.854 27.3964 36.7078 27.4173 36.68C27.2641 36.4735 27.6656 36.2693 27.4985 36.144C27.1806 36.3853 27.5379 35.7774 27.5379 35.7774L27.343 35.7751L27.2688 35.3365C27.2224 35.3365 27.1458 35.3365 27.118 35.3458C27.118 35.3528 27.1133 35.3597 27.1133 35.3667C27.0344 35.3922 26.5518 35.4757 26.5518 35.4757C26.3917 35.2739 25.8789 34.6984 25.8789 34.6984C25.6538 34.6984 25.6306 34.6056 25.4032 34.6799C25.3406 34.8841 23.7999 33.8469 22.5144 33.3271C22.1315 33.5963 21.208 33.5707 21.1825 33.6751C20.5537 33.6751 19.9365 34.1346 20.0084 34.1903C19.9458 34.2436 19.6488 34.5499 19.5884 34.3597C19.5699 34.3597 19.5119 34.3945 19.5142 34.4107C19.0919 34.5917 19.0292 35.2112 18.6208 35.3667C17.8853 34.4826 16.0058 36.2832 15.4837 36.4132C15.4837 36.7914 14.0335 35.4781 14.0335 35.4781C13.653 35.4015 13.5068 35.7333 13.1193 35.7333C13.0474 35.5152 11.4858 35.2901 11.1748 35.2251C11.1748 35.2275 11.1656 35.2483 11.1632 35.2507C11.1632 35.3226 11.1076 35.3713 11.089 35.427C11.0658 35.427 11.031 35.4247 11.0101 35.4317C10.7386 35.2669 10.3766 34.8168 10.1237 34.8168C10.1214 34.8052 10.1028 34.8028 10.0912 34.8028C10.0889 34.8121 10.0518 34.8492 10.0611 34.8632C10.0495 34.8794 10.024 34.9049 10.0077 34.9096C10.0077 34.9142 10.0077 34.9119 10.0054 34.9142C10.0054 35.2855 9.46707 35.3156 9.46707 35.3156C9.46011 35.3319 9.49259 35.427 9.48099 35.4688L9.35569 35.5105C9.24895 35.3296 9.16542 35.021 9.11669 34.8284C8.74776 34.7564 8.41595 35.0627 8.41595 34.478C8.29065 34.3945 7.88923 34.3179 7.86603 34.2947C7.91475 34.2297 7.5667 33.6171 7.5667 33.5638C7.46229 33.5382 7.33235 33.5661 7.22561 33.5754C7.1792 33.3155 7.25113 33.0394 7.28362 32.7795C7.68272 32.508 8.36258 31.1204 8.37882 30.6378C8.82665 30.4963 9.44386 31.3873 9.23967 30.5566C8.03309 31.3618 10.256 26.4774 10.256 26.4774C10.2328 26.4705 10.8593 25.8115 10.9196 25.728C10.9939 25.6282 11.4811 25.1409 11.5948 25.1409C11.5971 25.1363 11.6087 25.1363 11.6087 25.1247C11.7897 25.0643 12.1494 24.8253 12.4882 24.7604C12.4882 24.758 12.4905 24.758 12.4928 24.758C12.4928 24.7557 12.4951 24.7557 12.4974 24.7534C12.4974 24.1176 12.6877 23.7928 12.5392 23.1941C12.5392 23.1941 12.2886 21.0316 11.5067 20.7763C11.5067 20.6858 11.6111 20.361 11.5879 20.3308C11.6923 20.1916 11.6204 20.231 11.6204 20.0918C11.618 20.0918 11.618 20.0918 11.618 20.0872C11.4208 20.0222 11.6992 19.8668 11.4092 19.9016L11.4231 19.8343C11.6853 19.7345 11.4974 19.8412 11.4974 19.5489C11.7387 19.47 12.8664 19.4375 13.4047 18.7182C13.3885 18.6346 13.3444 18.4537 13.3629 18.3817C13.4093 18.3701 14.8433 17.79 14.8804 17.9385C15.8619 18.1822 18.1939 18.1335 19.3169 18.1335C19.3494 18.2634 19.5467 18.4003 19.5467 18.4676C19.549 18.4676 19.5536 18.4699 19.5536 18.4722C20.3634 18.4722 20.7625 18.6068 21.6327 18.5906L21.6443 19.0802C21.9065 19.115 21.7765 19.166 21.7765 19.3656C22.4842 19.5442 24.6561 19.2751 24.6561 19.2751C25.025 19.3679 25.2965 19.3702 25.7582 19.5233C25.7582 19.8018 25.8905 20.2218 26.0993 20.1916C26.4706 18.3028 27.176 19.7948 27.5565 20.0477C27.4498 20.2635 28.1088 20.47 28.2851 19.941C28.3454 19.941 29.8467 20.1661 29.9534 19.8436H29.9581C30.0207 19.6533 30.5405 20.1684 30.6054 20.1846C30.6054 20.187 30.6124 20.1939 30.6147 20.1939C30.7052 20.5605 30.8073 20.8854 31.2296 20.9341C32.3248 19.3772 30.4894 18.094 33.4386 17.0336C33.4757 17.0197 33.5894 16.9594 33.5616 16.9083C34.028 16.8433 35.6313 17.3677 35.6429 17.3329C35.8541 17.3329 36.2277 16.9895 36.3924 16.8433C35.4851 16.544 37.9586 15.943 38.3601 16.0428C38.3601 16.0428 39.2093 15.6994 39.3578 15.8827C39.6246 15.8758 39.5713 15.8526 39.5713 16.0405C40.1699 16.2377 41.3046 15.8897 41.3046 17.0823C41.3046 17.0823 41.7756 18.0453 41.7918 18.094C41.9589 18.094 42.4299 18.5349 42.2884 18.7251C42.3603 18.8226 41.6248 18.9409 41.5923 18.9641C41.0169 18.5279 41.9032 19.7299 41.9032 19.7299C41.9728 19.7461 41.4392 20.3424 41.9288 20.4074C41.8707 20.5582 41.8591 20.7044 41.6944 20.8599C41.7246 20.8877 43.1562 21.3193 43.1562 21.3193C43.1748 21.2659 44.0588 21.129 44.0704 21.0826L45.0403 21.9388C44.9034 22.0641 44.9916 22.5885 44.9916 22.5885V22.6071C45.2051 22.679 45.3721 23.5607 45.0311 23.7C45.0311 23.7557 45.096 23.8253 45.096 23.8763C45.7921 24.106 46.9987 24.8184 47.9686 25.1455C47.9686 25.3521 48.5696 25.2152 48.3584 25.4959C48.3584 25.4959 51.3865 25.2314 51.4074 25.236C51.4074 25.7048 51.4979 25.8486 51.7438 26.2408C52.2566 26.2408 53.4029 26.373 53.4029 26.373C54.6559 26.7884 55.3612 27.7675 57.0249 27.7675C57.0249 27.7699 57.0319 27.7745 57.0342 27.7745V27.7791L58.6097 28.4961C58.3011 28.5982 58.2454 28.7931 58.2802 29.0437C58.4264 29.1017 58.4728 29.3802 58.6793 29.4312C58.7791 29.8303 57.2291 30.8745 57.2291 30.8745C57.1642 30.9627 57.2918 31.0856 57.3567 31.0856C57.612 31.8537 58.0088 32.0787 57.7141 33.9234C57.7141 33.9234 58.4589 34.5569 58.018 34.3388C57.9995 34.3921 57.9832 34.5151 57.9136 34.5151C57.8533 34.7007 57.6607 34.9467 57.7837 35.1091C57.7814 35.1114 57.7814 35.1138 57.7814 35.1184C57.7048 35.1439 57.6027 35.1486 57.5169 35.1486C57.5169 35.1509 57.5145 35.1509 57.5122 35.1532C57.5122 35.1602 57.5888 35.2808 57.5981 35.2924C57.366 35.7565 56.5075 36.0117 56.5029 36.021C55.4378 35.2251 54.7464 36.4828 54.3403 36.5918V36.7009H54.2405V36.8053L53.7486 36.8099V36.9306L53.4516 36.9329V37.1116H53.3286V37.2322H53.2567V37.513H53.3077V37.8796H53.2637V37.9539H53.1616C53.1337 38.0536 53.0757 38.1325 53.0757 38.23H53.4098C53.2753 38.5804 53.1244 38.5711 53.1198 39.0328L53.1221 39.0375Z" fill="black"/>
</g>
<defs>
<clipPath id="clip0_261616_2">
<rect width="66" height="66" fill="white"/>
</clipPath>
</defs>
</svg>
